<svg width="110" height="137" viewBox="0 0 110 137" fill="none" xmlns="http://www.w3.org/2000/svg">
<rect width="68.734" height="7.80556" transform="matrix(0 1 1 0 82.8936 67.2441)" fill="#2B2F36" stroke="#F8F8F7" stroke-width="1.2"/>
<rect width="68.734" height="7.80556" transform="matrix(0 1 1 0 20.4512 66.6943)" fill="#2B2F36" stroke="#F8F8F7" stroke-width="1.2"/>
<path d="M108.652 121.804L108.652 24.2094L2.1328 24.2094L2.1328 121.804L34.8546 118.426C48.5103 117.016 62.2748 117.016 75.9305 118.426L108.652 121.804Z" fill="#2B2F36" stroke="#F8F8F7" stroke-width="1.2"/>
<rect width="68.8459" height="18.3919" transform="matrix(0 -1 -1 0 108.652 93.0557)" fill="#2B2F36" stroke="#F8F8F7" stroke-width="1.2"/>
<rect width="68.8459" height="18.3919" transform="matrix(0 -1 -1 0 18.9917 93.0557)" fill="#2B2F36" stroke="#F8F8F7" stroke-width="1.2"/>
<path d="M93.3257 34.0444V4.44037L66.5216 1.33395C58.8723 0.447453 51.1463 0.447453 43.497 1.33395L16.6929 4.44037V34.0444L36.0443 30.3066C48.5719 27.8868 61.4467 27.8868 73.9743 30.3066L93.3257 34.0444Z" fill="#2B2F36" stroke="#F8F8F7" stroke-width="1.2"/>
</svg>
