<svg width="833" height="699" viewBox="0 0 833 699" fill="none" xmlns="http://www.w3.org/2000/svg">
<rect width="831.292" height="697.781" transform="matrix(-1 0 0 1 831.892 0.600098)" stroke="#F8F8F7" stroke-width="1.2"/>
<rect width="800.195" height="666.459" transform="matrix(-1 0 0 1 816.519 16.2607)" stroke="#F8F8F7" stroke-width="1.2"/>
<rect width="15" height="138" transform="matrix(-1 0 0 1 831.6 416.485)" fill="#2B2F36" stroke="#F8F8F7" stroke-width="1.2"/>
<rect width="15.7244" height="386.303" transform="matrix(-1 0 0 1 16.3242 69.4854)" stroke="#F8F8F7" stroke-width="1.2"/>
<rect width="68.734" height="7.80556" transform="matrix(0.707107 0.707107 0.707107 -0.707107 192.339 147.248)" fill="#2B2F36" stroke="#F8F8F7" stroke-width="1.2"/>
<rect width="68.734" height="7.80556" transform="matrix(0.707107 0.707107 0.707107 -0.707107 147.796 191.013)" fill="#2B2F36" stroke="#F8F8F7" stroke-width="1.2"/>
<path d="M249.133 167.614L180.123 98.6039L104.802 173.925L173.812 242.934L194.561 217.408C203.22 206.755 212.953 197.022 223.606 188.363L249.133 167.614Z" fill="#2B2F36" stroke="#F8F8F7" stroke-width="1.2"/>
<rect width="68.8459" height="18.3919" transform="matrix(-0.707107 -0.707107 -0.707107 0.707107 228.804 147.286)" fill="#2B2F36" stroke="#F8F8F7" stroke-width="1.2"/>
<rect width="68.8459" height="18.3919" transform="matrix(-0.707107 -0.707107 -0.707107 0.707107 165.405 210.685)" fill="#2B2F36" stroke="#F8F8F7" stroke-width="1.2"/>
<path d="M176.24 116.396L155.307 95.4628L134.157 112.22C128.121 117.002 122.658 122.465 117.876 128.5L101.119 149.65L122.052 170.584L133.093 154.257C140.24 143.688 149.344 134.584 159.913 127.436L176.24 116.396Z" fill="#2B2F36" stroke="#F8F8F7" stroke-width="1.2"/>
<rect width="61.6639" height="8.70051" transform="matrix(0.707107 0.707107 0.707107 -0.707107 420.364 476.885)" fill="#2B2F36" stroke="#F8F8F7" stroke-width="1.2"/>
<rect width="61.6639" height="8.70051" transform="matrix(0.707107 0.707107 0.707107 -0.707107 468.967 428.282)" fill="#2B2F36" stroke="#F8F8F7" stroke-width="1.2"/>
<path d="M414.432 500.482L476.344 562.394L560.3 478.437L498.389 416.526L470.636 449.309C463.49 457.75 455.656 465.583 447.215 472.729L414.432 500.482Z" fill="#2B2F36" stroke="#F8F8F7" stroke-width="1.2"/>
<rect width="61.7643" height="20.5006" transform="matrix(0.707107 0.707107 0.707107 -0.707107 432.669 518.72)" fill="#2B2F36" stroke="#F8F8F7" stroke-width="1.2"/>
<rect width="61.7643" height="20.5006" transform="matrix(0.707107 0.707107 0.707107 -0.707107 503.338 448.052)" fill="#2B2F36" stroke="#F8F8F7" stroke-width="1.2"/>
<path d="M482.185 544.075L500.965 562.855L526.802 541.426C531.578 537.465 535.975 533.068 539.936 528.292L561.365 502.454L542.585 483.674L526.253 506.018C520.174 514.336 512.846 521.664 504.529 527.743L482.185 544.075Z" fill="#2B2F36" stroke="#F8F8F7" stroke-width="1.2"/>
<path d="M817.199 415.886V555.085H678V554.485C678 517.726 692.602 482.473 718.595 456.48C744.587 430.488 779.841 415.886 816.6 415.886H817.199ZM816 417.088C779.776 417.246 745.069 431.703 719.443 457.329C693.817 482.955 679.361 517.661 679.203 553.886H816V417.088Z" fill="#F8F8F7"/>
<rect width="42" height="67" transform="matrix(-0.707107 -0.707107 -0.707107 0.707107 324.21 263.72)" stroke="#F8F8F7" stroke-width="1.2"/>
<rect x="327.746" y="260.184" width="7" height="77" transform="rotate(45 327.746 260.184)" stroke="#F8F8F7" stroke-width="1.2"/>
<rect width="42" height="67" transform="matrix(0.707107 0.707107 0.707107 -0.707107 361.085 393.347)" stroke="#F8F8F7" stroke-width="1.2"/>
<rect x="357.549" y="396.882" width="7" height="77" transform="rotate(-135 357.549 396.882)" stroke="#F8F8F7" stroke-width="1.2"/>
<rect width="256" height="358" transform="matrix(-0.707107 -0.707107 -0.707107 0.707107 549.763 295.505)" stroke="#F8F8F7" stroke-width="1.2"/>
</svg>
