<svg width="24" height="24" viewBox="0 0 24 24" fill="none" xmlns="http://www.w3.org/2000/svg">
<g clip-path="url(#clip0_168_347)">
<path d="M22.692 12.5141C22.489 12.4281 22.256 12.4871 22.116 12.6541C21.03 13.9521 19.239 14.5561 16.479 14.5561C11.481 14.5561 9.442 12.5181 9.442 7.52306C9.442 4.82906 10.063 2.98506 11.341 1.88506C11.506 1.74306 11.56 1.51106 11.475 1.31006C11.389 1.11006 11.182 0.997059 10.968 1.00806C5.285 1.54806 1 6.26306 1 11.9761C1 18.0511 5.945 22.9951 12.023 22.9951C17.744 22.9951 22.462 18.7081 22.998 13.0221C23.019 12.8041 22.894 12.5981 22.692 12.5141ZM12.023 21.9941C6.496 21.9941 2 17.5001 2 11.9751C2 7.24106 5.236 3.26106 9.721 2.22206C8.863 3.50206 8.443 5.25206 8.443 7.52306C8.443 14.6431 12.738 15.5561 16.48 15.5561C18.794 15.5561 20.518 15.1501 21.781 14.2931C20.735 18.7681 16.757 21.9941 12.024 21.9941H12.023Z" fill="#FD3D06" stroke="#FD3D06" stroke-width="0.5"/>
</g>
<defs>
<clipPath id="clip0_168_347">
<rect width="24" height="24" fill="white"/>
</clipPath>
</defs>
</svg>
