<svg width="24" height="24" viewBox="0 0 24 24" fill="none" xmlns="http://www.w3.org/2000/svg">
<g clip-path="url(#clip0_168_344)">
<path d="M12 17C9.24 17 7 14.76 7 12C7 9.24 9.24 7 12 7C14.76 7 17 9.24 17 12C17 14.76 14.76 17 12 17ZM12 8C9.79 8 8 9.79 8 12C8 14.21 9.79 16 12 16C14.21 16 16 14.21 16 12C16 9.79 14.21 8 12 8ZM12.5 4.5V0.5C12.5 0.22 12.28 0 12 0C11.72 0 11.5 0.22 11.5 0.5V4.5C11.5 4.78 11.72 5 12 5C12.28 5 12.5 4.78 12.5 4.5ZM12.5 23.5V19.5C12.5 19.22 12.28 19 12 19C11.72 19 11.5 19.22 11.5 19.5V23.5C11.5 23.78 11.72 24 12 24C12.28 24 12.5 23.78 12.5 23.5ZM5 12C5 11.72 4.78 11.5 4.5 11.5H0.5C0.22 11.5 0 11.72 0 12C0 12.28 0.22 12.5 0.5 12.5H4.5C4.78 12.5 5 12.28 5 12ZM24 12C24 11.72 23.78 11.5 23.5 11.5H19.5C19.22 11.5 19 11.72 19 12C19 12.28 19.22 12.5 19.5 12.5H23.5C23.78 12.5 24 12.28 24 12ZM17.85 6.85L20.85 3.85C21.05 3.65 21.05 3.34 20.85 3.14C20.65 2.94 20.34 2.94 20.14 3.14L17.14 6.14C16.94 6.34 16.94 6.65 17.14 6.85C17.24 6.95 17.37 7 17.49 7C17.61 7 17.75 6.95 17.84 6.85H17.85ZM3.85 20.85L6.85 17.85C7.05 17.65 7.05 17.34 6.85 17.14C6.65 16.94 6.34 16.94 6.14 17.14L3.14 20.14C2.94 20.34 2.94 20.65 3.14 20.85C3.24 20.95 3.37 21 3.49 21C3.61 21 3.75 20.95 3.84 20.85H3.85ZM6.85 6.85C7.05 6.65 7.05 6.34 6.85 6.14L3.85 3.15C3.65 2.95 3.34 2.95 3.14 3.15C2.94 3.35 2.94 3.66 3.14 3.86L6.14 6.86C6.24 6.96 6.37 7.01 6.49 7.01C6.61 7.01 6.75 6.96 6.84 6.86L6.85 6.85ZM20.85 20.85C21.05 20.65 21.05 20.34 20.85 20.14L17.85 17.14C17.65 16.94 17.34 16.94 17.14 17.14C16.94 17.34 16.94 17.65 17.14 17.85L20.14 20.85C20.24 20.95 20.37 21 20.49 21C20.61 21 20.75 20.95 20.84 20.85H20.85Z" fill="#F8F8F7" stroke="#F8F8F7" stroke-width="0.5"/>
</g>
<defs>
<clipPath id="clip0_168_344">
<rect width="24" height="24" fill="white"/>
</clipPath>
</defs>
</svg>
