<svg width="109" height="53" viewBox="0 0 109 53" fill="none" xmlns="http://www.w3.org/2000/svg">
<path fill-rule="evenodd" clip-rule="evenodd" d="M69.9767 0.344896C63.8259 1.10652 58.4943 2.28969 50.6909 4.62615C46.8066 5.78922 39.9615 7.4097 35.4796 8.22782C14.3738 12.0805 2.09932 16.635 6.00756 19.1643C6.38132 19.406 10.0348 19.726 14.1272 19.8754L21.5677 20.147L18.9959 22.3199C10.3048 29.6629 0.824831 42.8494 0.0419895 48.6827C-0.273103 51.0349 1.22196 53.0215 3.29124 52.9998C6.8181 52.9629 15.23 47.9841 23.7994 40.8617C30.1969 35.544 41.9677 23.8796 43.7241 21.1167C44.9655 19.1632 45.5049 18.7884 47.3922 18.5667C48.6086 18.4238 53.2714 17.8898 57.7533 17.3803C62.2352 16.8707 66.7579 16.3405 67.8037 16.202L69.7051 15.951L67.5321 17.5395C59.4706 23.4325 46.8995 31.2041 46.3372 30.6423C46.2128 30.5179 47.2026 29.3581 48.5369 28.0652C49.8711 26.7723 50.9625 25.3784 50.9625 24.9677C50.9625 24.1023 50.0949 23.9708 49.606 24.7618C49.4218 25.0595 46.4741 27.1423 43.0548 29.3907C39.6355 31.6386 36.8377 33.5954 36.8377 33.7388C36.8377 34.4363 38.5571 33.8208 41.4174 32.0982C44.7856 30.0703 45.2463 29.8807 44.7128 30.7439C44.2538 31.4865 45.7939 32.0146 47.3086 31.6343C49.4028 31.1084 59.9981 24.4701 69.2308 17.8985C73.992 14.5098 74.0718 14.9721 69.3536 18.6085C52.9661 31.2388 44.8128 38.8887 47.7388 38.8887C48.6607 38.8887 50.2797 37.932 57.002 33.415C61.2041 30.5913 63.6608 29.2652 64.3556 29.4467C64.9624 29.6058 67.4332 28.6829 70.2679 27.239L75.1377 24.758L72.5116 27.07C71.0676 28.3417 70.0506 29.5466 70.2522 29.7482C70.4537 29.9492 72.8577 28.7606 75.5941 27.1064C78.331 25.4523 80.8148 23.966 81.1136 23.8041C81.4124 23.6422 80.9648 24.2544 80.1184 25.1643C78.1556 27.2748 79.0345 27.8669 81.5732 26.1443C82.644 25.4175 84.0787 24.5336 84.7616 24.18C85.8813 23.6004 85.8558 23.6943 84.5014 25.1393C82.7939 26.9608 83.1085 27.9001 85.0088 26.655C86.1078 25.9352 86.2746 25.9308 86.2746 26.624C86.2746 27.1988 87.9783 26.6007 92.3635 24.4858C95.7122 22.8708 98.5654 21.6626 98.7034 21.8011C98.8419 21.9397 98.3818 22.6627 97.681 23.4086C96.0316 25.1638 96.8063 25.148 99.126 23.3787C103.021 20.4083 100.186 19.3669 94.9668 21.8517C91.3634 23.5672 87.7338 23.9252 88.5025 22.4889C89.2626 21.0689 88.2776 20.8988 86.0899 22.0711C84.4324 22.9599 84.1016 23.0012 84.1016 22.321C84.1016 21.1808 83.1052 21.3111 80.5177 22.7909C78.5831 23.8975 78.2245 23.9562 77.7731 23.2402C77.3292 22.5367 76.6056 22.741 72.8001 24.6455C70.351 25.8716 68.3469 26.7962 68.3469 26.7012C68.3469 26.6055 70.0696 25.2708 72.1753 23.7345C74.281 22.1983 75.8554 20.7006 75.6739 20.4067C75.2355 19.6972 74.1658 20.285 67.2604 25.0263C58.5215 31.0275 54.7111 33.5867 52.0442 35.2452L49.6044 36.763L52.5923 33.9626C55.7248 31.0264 70.9872 18.6618 74.4157 16.2824C75.8152 15.3111 78.3261 14.5185 82.8363 13.6238C95.0575 11.201 102.101 8.63633 102.828 6.34387C103.562 4.03185 101.526 2.67701 94.9668 1.11412C90.6734 0.0912042 75.7386 -0.368375 69.9767 0.344896ZM71.1214 1.44495C65.9093 2.03328 56.5505 3.86399 54.673 4.66309C53.7582 5.05205 54.5367 5.11507 57.4817 4.89071C69.5986 3.96775 72.259 3.8591 72.5176 4.2774C73.0375 5.11887 72.2899 5.28673 66.903 5.54042C57.6273 5.97664 46.6626 7.37874 43.8463 8.48857C39.051 10.3785 26.9862 17.0446 26.2734 18.1979C25.7519 19.042 52.1322 17.1293 63.4576 15.5023C67.4913 14.9232 71.066 14.4473 71.4012 14.4457C71.7364 14.4441 73.9366 13.1773 76.2905 11.6296C81.7411 8.04746 90.1611 3.03501 90.7288 3.03501C91.9995 3.03501 90.6587 4.36975 86.1388 7.60473C79.4963 12.3581 78.9797 12.7644 79.2519 13.017C79.681 13.4141 94.7995 9.65599 97.5745 8.46195C99.0858 7.81224 100.732 6.82681 101.234 6.27216C102.1 5.31606 102.056 5.2085 100.392 4.19591C96.4467 1.79752 80.9256 0.338378 71.1214 1.44495ZM31.9483 10.0841C19.035 12.7758 9.73053 15.5349 7.59714 17.3053C6.92458 17.8632 7.14026 18.0343 8.91292 18.3494C10.0788 18.5569 13.7262 18.7406 17.0184 18.7574C22.5092 18.7862 23.1665 18.6786 24.9701 17.4525C27.8098 15.5235 32.201 12.9094 36.5661 10.5507C38.6576 9.42077 40.1245 8.50922 39.8257 8.52551C39.5269 8.54181 35.9821 9.24313 31.9483 10.0841ZM33.0349 19.4223C28.7024 19.682 24.6181 20.0144 23.9586 20.1611C21.1689 20.7815 8.90315 33.9501 4.74664 40.7873C1.47023 46.1768 0.436941 51.0594 2.47635 51.5168C5.48874 52.1915 12.411 48.4236 21.3373 41.2496C27.5213 36.2795 39.077 25.1171 42.1986 21.0977L43.9914 18.7889L42.4518 18.8693C41.6048 18.9138 37.3674 19.1626 33.0349 19.4223ZM105.017 28.9491C101.03 29.4847 72.8555 34.2043 66.7172 35.3642C55.4988 37.485 29.6362 43.736 28.8566 44.5155C27.9592 45.413 32.2368 44.6372 42.1068 42.1128C55.2163 38.7594 66.8606 36.4235 87.9441 32.9174C96.7797 31.448 105.05 30.0122 106.321 29.7264C110.445 28.7997 109.651 28.3265 105.017 28.9491Z" fill="#FD3D06"/>
</svg>
