<svg width="1618" height="322" viewBox="0 0 1618 322" fill="none" xmlns="http://www.w3.org/2000/svg">
<g opacity="0.1">
<path d="M4.27417 122.666C22.0657 141.931 57.6487 180.461 124.651 182.82C191.653 185.179 309.758 79.0254 428.999 79.0254C548.24 79.0254 608.429 122.666 724.263 122.666C840.097 122.666 940.032 44.8204 1106.97 99.0766C1177.38 121.96 1305.7 242.974 1600.97 182.82" stroke="#FFF5F3"/>
<path d="M5.40979 200.512C23.2013 219.777 78.09 226.461 124.651 208.769C171.212 191.076 330.095 79.0246 428.999 79.0254C493.73 79.0259 605.022 174.564 720.856 174.564C836.69 174.564 992.96 23.9193 1143.31 116.769C1227.35 168.666 1412.45 438.768 1616.87 148.615" stroke="#FFF5F3"/>
<path d="M0.36731 279.5C18.1588 298.765 120.367 258 180.297 217.026C240.226 176.051 325.963 79 424.867 79C529.1 79 563.867 207.59 719.72 207.59C895.743 207.59 1078.03 -41.8205 1176.24 108.513C1284.13 273.65 1430.62 432.864 1613.46 214.655" stroke="#FFF5F3"/>
<path d="M9.95239 82.5642C37.2075 69.1967 110.342 53.313 184.839 96.718C277.961 150.974 330.2 212.308 414.236 213.487C498.273 214.667 647.04 53.0777 886.658 60.1546C1126.28 67.2315 1229.62 194.616 1613.46 127.385" stroke="#FFF5F3"/>
<line x1="0.86731" y1="79.7051" x2="1615.73" y2="79.7051" stroke="#FFF5F3"/>
<line x1="0.86731" y1="126.885" x2="1615.73" y2="126.885" stroke="#FFF5F3"/>
<line x1="0.86731" y1="174.063" x2="1615.73" y2="174.063" stroke="#FFF5F3"/>
<rect x="96.7601" y="113.73" width="23.9838" height="10.7948" fill="#2B2F36" stroke="#FFF5F3"/>
<rect x="921.227" y="163.269" width="23.9838" height="10.7948" fill="#2B2F36" stroke="#FFF5F3"/>
<rect x="1436.8" y="115.73" width="23.9838" height="10.7948" fill="#2B2F36" stroke="#FFF5F3"/>
<rect x="610.367" y="163.5" width="14.8988" height="10.7948" fill="#2B2F36" stroke="#FFF5F3"/>
<rect x="1514.03" y="162.909" width="14.8988" height="10.7948" fill="#2B2F36" stroke="#FFF5F3"/>
<rect x="244.392" y="79.7051" width="30.7976" height="15.5128" fill="#2B2F36" stroke="#FFF5F3"/>
<rect x="330.7" y="160.909" width="30.7976" height="13.1538" fill="#2B2F36" stroke="#FFF5F3"/>
<rect x="1057.37" y="113.73" width="30.7976" height="13.1538" fill="#2B2F36" stroke="#FFF5F3"/>
<rect x="1298.26" y="160.552" width="30.7976" height="13.1538" fill="#2B2F36" stroke="#FFF5F3"/>
<rect x="417.008" y="120.809" width="30.7976" height="6.0769" fill="#2B2F36" stroke="#FFF5F3"/>
<line x1="1426.37" y1="80" x2="1426.37" y2="321" stroke="#FFF5F3"/>
<line x1="1098.37" y1="60" x2="1098.37" y2="321" stroke="#FFF5F3"/>
<line x1="969.367" y1="104" x2="969.367" y2="321" stroke="#FFF5F3"/>
<line x1="1484.5" y1="2.26997e-08" x2="1484.5" y2="172.205" stroke="#FFF5F3"/>
<line x1="1557.18" y1="80.2051" x2="1557.18" y2="172.205" stroke="#FFF5F3"/>
<line x1="460.161" y1="80.2051" x2="460.161" y2="202.871" stroke="#FFF5F3"/>
<line x1="1588.98" y1="80.2051" x2="1588.98" y2="172.205" stroke="#FFF5F3"/>
<line x1="471.518" y1="80.2051" x2="471.518" y2="198.153" stroke="#FFF5F3"/>
<path d="M401.744 14.1543L401.744 212.308" stroke="#FFF5F3"/>
</g>
</svg>
