<svg width="76" height="79" viewBox="0 0 76 79" fill="none" xmlns="http://www.w3.org/2000/svg">
<rect x="7.59998" y="5.6001" width="67" height="67" stroke="#C7C6FF" stroke-width="1.2"/>
<rect width="7" height="77" transform="matrix(-1 0 0 1 7.59998 0.600098)" stroke="#C7C6FF" stroke-width="1.2"/>
<path d="M43.1996 14.1304C56.1171 15.433 66.1996 26.3391 66.1996 39.6001C66.1996 53.7386 54.7385 65.1997 40.6 65.1997C26.4615 65.1997 15.0004 53.7386 15.0004 39.6001C15.0004 26.3391 25.0829 15.433 38.0004 14.1304V15.3374C25.7469 16.6352 16.1996 27.0025 16.1996 39.6001C16.1996 53.0758 27.1242 64.0005 40.6 64.0005C54.0757 64.0005 65.0004 53.0758 65.0004 39.6001C65.0004 27.0025 55.4531 16.6352 43.1996 15.3374V14.1304Z" fill="#C7C6FF"/>
<rect width="4" height="34" transform="matrix(-1 0 0 1 42.6 5.6001)" stroke="#C7C6FF" stroke-width="1.2"/>
</svg>
